<svg width="64" height="64" viewBox="0 0 64 64" fill="none" xmlns="http://www.w3.org/2000/svg">
<path d="M54.1491 51.2187L22.5699 59.6979C18.3303 60.8202 13.9659 58.3263 12.8437 54.0866L4.36437 22.5075C3.24211 18.2678 5.73602 13.9035 9.97567 12.7812L41.5548 4.33312C45.7945 3.21086 50.1588 5.70477 51.2811 9.94442L59.7292 41.5236C60.9138 45.732 58.3887 50.0964 54.1491 51.2187Z" fill="#E1E4F4"/>
<path d="M21.1983 26.2483C21.1983 26.2483 19.2967 24.4714 19.359 23.4738C19.4214 22.4763 19.7331 21.8528 20.2631 21.9775C20.793 22.071 21.5412 22.9127 21.5412 23.318C21.5412 23.7232 21.136 24.5649 21.5412 25.0013C21.9776 25.469 22.3206 26.2795 21.1983 26.2483Z" fill="#57617F"/>
<path d="M10.4745 38.063L12.9996 45.3266L35.85 39.5282L48.6002 23.3801L44.7969 10.9106L44.3917 10.1936C43.9241 9.38306 42.8953 9.10249 42.0848 9.5701L27.5266 17.9559C26.342 18.6417 25.2821 19.5146 24.378 20.5433L18.642 27.121C18.268 27.5574 17.8627 27.9315 17.4263 28.2744L12.7502 31.8906C11.3162 32.9817 10.4745 34.6963 10.4745 36.5043V38.063Z" fill="#F97A7A"/>
<path d="M10.8485 33.8545C10.7238 34.1351 10.1939 35.6626 9.69507 37.5954C8.9469 38.3124 8.69751 39.3723 8.69751 39.9646V43.8925C8.69751 45.1083 9.35216 46.2305 10.3809 46.8228C13.4671 48.5997 16.6157 50.4078 16.6157 50.4078C18.3926 51.4366 20.4501 51.9665 22.5075 51.9665H24.1598L25.7185 42.4273L10.8485 33.8545Z" fill="#57617F"/>
<path d="M9.53921 39.4971L10.0692 39.2477C10.0692 37.7826 10.5056 36.4733 10.5056 36.4733L12.4384 34.7275L10.8485 33.8235C10.7238 34.1041 10.1939 35.6316 9.69508 37.5644C8.9469 38.2814 8.69751 39.3413 8.69751 39.9336V41.2429C8.69751 42.4275 8.69751 43.2068 8.69751 43.8303C8.69751 43.8303 9.10277 43.9238 9.10277 43.6744C9.25864 42.0846 9.53921 39.4971 9.53921 39.4971Z" fill="#EF3F54"/>
<path d="M18.112 27.7756L34.6342 37.3148L26.8719 41.7727C26.1237 42.2091 25.282 42.4897 24.4403 42.5832L21.1983 42.9573C19.9825 43.082 18.7667 42.8326 17.738 42.2403L12.0331 38.9359C11.0979 38.3748 10.5056 37.3772 10.5056 36.2861V35.3821C10.5056 34.291 11.0044 33.2622 11.8773 32.6076L18.112 27.7756Z" fill="#F97A7A"/>
<path d="M27.3706 18.6418C27.3706 18.6418 26.9965 21.1668 30.7997 23.3802C34.6029 25.5935 38.4373 26.3105 38.4373 26.3105L56.7676 16.7401L44.3915 9.6325C43.6122 9.19607 42.677 9.19607 41.9288 9.6325L28.2434 17.5195L27.3706 18.6418Z" fill="#F97A7A"/>
<path d="M27.246 41.5547L31.2051 39.279C33.4184 38.0009 35.0707 35.9746 35.9123 33.5742L38.4374 26.3107L54.679 16.9274C55.5831 16.3974 56.7365 16.5221 57.547 17.2079L58.6693 18.1743C60.3527 19.6083 61.2879 21.7281 61.2879 23.9415V29.0852C61.2879 30.9868 60.2592 32.7637 58.6069 33.7301L29.3658 50.6263C27.8383 51.4992 26.0926 51.9668 24.3157 51.9668H22.6634C20.8554 51.9668 19.359 50.5016 19.359 48.6936V46.3867C19.359 44.5474 20.7307 43.0199 22.5387 42.8017L24.0351 42.6458C25.1574 42.49 26.2484 42.147 27.246 41.5547Z" fill="#EF3F54"/>
<path d="M38.4998 34.8209L56.6119 23.2242C57.0795 22.9436 57.1418 22.289 56.7366 21.9149L54.118 19.421C53.8374 19.1716 53.4321 19.1092 53.1204 19.2963L41.7419 25.8739C40.4326 26.6221 39.4662 27.8379 39.061 29.3031L37.627 34.1662C37.4399 34.6962 38.0322 35.1326 38.4998 34.8209Z" fill="#FFB75E"/>
<path d="M19.3277 27.2769L24.7832 20.855C25.0949 20.5121 25.6249 20.4498 25.9678 20.7615C26.8718 21.5409 28.6487 22.9749 30.4257 24.0036C32.3273 25.0947 35.0394 26.217 36.3799 26.7469C36.8163 26.9028 37.0033 27.4016 36.8475 27.838L33.8236 35.3821C33.5742 36.0367 32.826 36.3796 32.1402 36.0991C30.0204 35.2574 25.656 33.4805 23.2868 32.1088C21.3852 31.0177 20.0759 29.7708 19.3589 28.9603C18.9225 28.4926 18.9225 27.7756 19.3277 27.2769Z" fill="#FDFDFD"/>
<path d="M21.8841 46.1062C20.8242 46.7297 20.6371 47.2285 20.6371 48.3507V51.6552L17.8627 50.1588L19.3278 46.1374L24.7833 44.2981C24.7833 44.267 24.378 44.6411 21.8841 46.1062Z" fill="#57617F"/>
<path d="M10.0692 36.3486C10.0692 36.3486 8.91572 40.0895 10.0692 40.7442L18.9849 46.3555C18.9849 46.3555 20.2318 46.6048 23.1934 46.0437C23.5363 45.9814 24.5027 45.2644 26.0302 44.0174C26.1861 43.8927 26.0302 43.6433 25.8743 43.7368C24.4403 44.298 21.8529 45.1085 19.3902 44.6721C16.8339 43.2381 10.1003 39.3102 10.1003 39.3102C10.1003 39.3102 9.91329 37.8762 10.0692 36.3486Z" fill="#FFB75E"/>
<path d="M10.0692 39.2791L19.359 44.641C19.359 44.641 19.1096 47.4466 18.112 46.8543C17.1145 46.2932 11.3161 42.9264 10.5056 42.4276C9.75743 41.96 10.0692 39.2791 10.0692 39.2791Z" fill="#2B2E3A"/>
<path d="M36.567 46.4798L36.4423 42.9572L35.6629 42.022H32.8573L30.831 43.456L28.3682 47.0098L27.246 50.8442L27.4018 51.4988C27.4018 51.4988 28.5241 51.1871 29.4593 50.5636C30.4257 49.909 36.567 46.4798 36.567 46.4798Z" fill="#2B2E3A"/>
<path d="M32.265 42.9573C31.8598 42.9573 31.4857 43.0508 31.1428 43.269C29.1165 44.4224 27.776 46.6046 27.776 49.0985C27.776 50.3455 28.7736 51.343 30.0205 51.343C30.4258 51.343 30.831 51.2184 31.1428 51.0313C33.1379 49.8779 34.5096 47.6957 34.5096 45.2018C34.5096 43.9548 33.512 42.9573 32.265 42.9573Z" fill="#2B2E3A"/>
<path d="M28.8982 51.0314L30.5816 51.9666L35.0083 44.1732L33.2937 43.2068L28.8982 51.0314Z" fill="#2B2E3A"/>
<path d="M60.2903 31.7659L60.1968 32.2959L57.1417 34.3222L54.9596 35.8185L51.094 38.0319L53.0579 31.7347L56.7053 28.555C56.7053 28.555 58.8875 28.1809 58.9498 28.0874C59.0122 27.9939 60.4462 28.7732 60.4462 28.7732L60.602 30.1137L60.2903 31.7659Z" fill="#2B2E3A"/>
<path d="M56.2689 29.2097C55.8637 29.2097 55.4896 29.3032 55.1467 29.5215C53.1204 30.6749 51.7799 32.8571 51.7799 35.351C51.7799 36.5979 52.7775 37.5955 54.0244 37.5955C54.4297 37.5955 54.8349 37.4708 55.1467 37.2838C57.1418 36.1303 58.5135 33.9481 58.5135 31.4542C58.5135 30.2073 57.5159 29.2097 56.2689 29.2097Z" fill="#2B2E3A"/>
<path d="M52.9021 37.2839L54.5855 38.2503L59.0122 30.4256L57.2976 29.4592L52.9021 37.2839Z" fill="#2B2E3A"/>
<path d="M57.9522 30.176C57.5469 30.176 57.1728 30.2695 56.8299 30.4878C54.8036 31.6412 53.4631 33.8234 53.4631 36.3173C53.4631 37.5642 54.4607 38.5618 55.7077 38.5618C56.1129 38.5618 56.5182 38.4371 56.8299 38.2501C58.825 37.0966 60.1967 34.9145 60.1967 32.4205C60.1967 31.1736 59.1991 30.176 57.9522 30.176Z" fill="#57617F"/>
<path d="M57.7341 31.0491C57.4223 31.0491 57.1106 31.1426 56.8612 31.2985C55.2713 32.2025 54.2114 33.9482 54.2114 35.9122C54.2114 36.8786 54.9908 37.6891 55.9883 37.6891C56.3001 37.6891 56.6118 37.5956 56.8924 37.4397C58.4822 36.5045 59.5422 34.7899 59.5422 32.826C59.511 31.8284 58.7316 31.0491 57.7341 31.0491Z" fill="#57617F"/>
<path d="M27.4018 51.4992C27.4018 51.4992 28.9605 43.8304 33.3872 42.4588C37.8139 41.0871 35.8499 46.8543 35.8499 46.8543L37.1281 46.1061C37.1281 46.1061 37.9698 40.0584 33.3872 41.4924C27.4953 43.3628 25.6873 51.8421 25.6873 51.8421C26.2484 52.0603 26.9654 51.7798 27.4018 51.4992Z" fill="#F97A7A"/>
<path d="M57.5159 27.8382C50.9694 29.9268 49.8159 38.8114 49.8159 38.8114L51.5617 37.8138C51.5617 37.8138 53.058 30.1762 57.4847 28.8046C60.8203 27.7758 60.5397 30.7685 60.1968 32.3272C60.6956 31.6725 61.0385 30.8932 61.1944 30.0827C60.9138 28.5552 60.0721 26.9965 57.5159 27.8382Z" fill="#F97A7A"/>
<path d="M33.9483 43.9238C33.543 43.9238 33.1689 44.0173 32.826 44.2356C30.7997 45.389 29.4592 47.5712 29.4592 50.0651C29.4592 51.312 30.4568 52.3096 31.7037 52.3096C32.109 52.3096 32.5143 52.1849 32.826 51.9979C34.8211 50.8444 36.1928 48.6623 36.1928 46.1684C36.1928 44.9214 35.1952 43.9238 33.9483 43.9238Z" fill="#57617F"/>
<path d="M33.7614 44.7034C33.4185 44.7034 33.1067 44.7969 32.8573 44.9528C31.2363 45.888 30.114 47.6649 30.114 49.6912C30.114 50.6888 30.9245 51.4993 31.9221 51.4993C32.265 51.4993 32.5768 51.4058 32.8573 51.2499C34.4784 50.3147 35.5694 48.5378 35.5694 46.5426C35.6006 45.5139 34.7589 44.7034 33.7614 44.7034Z" fill="#57617F"/>
<path d="M39.0297 33.1377C38.5933 33.1688 38.0634 33.73 38.0634 34.4781C38.0945 35.2263 38.4374 35.351 38.718 35.4757C38.9986 35.6004 41.2119 35.9745 41.8042 35.351C42.3965 34.7275 42.2095 34.2599 41.6795 33.9793C41.1496 33.6988 39.6532 33.0753 39.0297 33.1377Z" fill="#57617F"/>
<path d="M37.3464 34.603C37.284 34.9771 38.2192 35.1018 38.4063 35.133C38.5933 35.1642 38.4374 34.1666 38.2504 34.1043C38.0634 34.0419 37.3775 34.3536 37.3464 34.603Z" fill="#57617F"/>
<path d="M9.91328 43.5808L19.359 49.0362C19.9201 51.9666 20.5748 51.8107 20.5748 51.8107C19.3901 51.6237 18.1744 51.2184 16.8651 50.5014L10.4432 46.7605C9.78859 46.2929 9.22746 45.8253 9.13393 45.4201C9.10276 44.8901 9.91328 43.5808 9.91328 43.5808Z" fill="#2B2E3A"/>
<path d="M19.1095 28.6797C18.4237 29.4279 17.8314 30.2384 17.2079 31.0177L15.3687 33.3558C14.7452 34.1351 14.1217 34.9145 13.4982 35.6938C13.1865 36.0679 12.8748 36.4732 12.563 36.8472C12.4072 37.0343 12.2513 37.2525 12.0954 37.4396C11.9395 37.6578 11.7837 37.8448 11.7213 38.0942C11.6902 37.8448 11.7837 37.5642 11.8772 37.346C11.9707 37.0966 12.0642 36.8784 12.1578 36.629C12.376 36.1614 12.6254 35.725 12.8748 35.2886C13.4047 34.4157 13.9658 33.574 14.6205 32.7946C15.244 32.0153 15.9298 31.2359 16.6468 30.5501C17.395 29.8019 18.1743 29.1161 19.1095 28.6797Z" fill="#EF3F54"/>
<path d="M18.7356 42.0847C19.6708 41.3677 20.6996 40.8378 21.7283 40.3078C22.757 39.7779 23.8169 39.2791 24.8457 38.8115C25.9056 38.3439 26.9655 37.8762 28.0566 37.471C29.1477 37.0346 30.2076 36.6293 31.3298 36.2864C30.3946 37.0034 29.3971 37.5957 28.3683 38.1568C27.3396 38.7179 26.3109 39.2167 25.2509 39.6843C24.191 40.1519 23.1311 40.5884 22.04 40.9936C20.9489 41.3989 19.8579 41.7418 18.7356 42.0847Z" fill="#EF3F54"/>
<path fill-rule="evenodd" clip-rule="evenodd" d="M47.0002 21.5L49.5002 29.5L48.0002 31L45.5002 23L47.0002 21.5Z" fill="#EF3F54"/>
<path d="M61.0696 22.0396C61.0696 22.0396 60.8202 22.7566 59.2927 23.6918C59.2927 24.4711 60.7579 25.1569 61.2879 24.8764C61.2879 24.8764 61.4125 23.0995 61.0696 22.0396Z" fill="#FFB75E"/>
</svg>
