<svg width="10" height="10" viewBox="0 0 10 10" fill="none" xmlns="http://www.w3.org/2000/svg">
<path fill-rule="evenodd" clip-rule="evenodd" d="M4.41485 1.23268C4.41485 0.90313 4.68194 0.636719 5.01081 0.636719C5.33968 0.636719 5.60677 0.90313 5.60677 1.23268V4.51551H9.05122C9.38009 4.51551 9.64717 4.78192 9.64717 5.11147C9.64717 5.44101 9.38009 5.70743 9.05122 5.70743H5.60677V9.31349C5.60677 9.64303 5.33968 9.90944 5.01081 9.90944C4.68194 9.90944 4.41485 9.64303 4.41485 9.31349V5.70743H0.97041C0.64154 5.70743 0.374451 5.44101 0.374451 5.11147C0.374451 4.78192 0.64154 4.51551 0.97041 4.51551H4.41485V1.23268Z" fill="#6F7DFF"/>
</svg>
